<svg xmlns="http://www.w3.org/2000/svg" xmlns:xlink="http://www.w3.org/1999/xlink" width="512" zoomAndPan="magnify" viewBox="0 0 384 383.999986" height="512" preserveAspectRatio="xMidYMid meet" version="1.0"><defs><g/><clipPath id="4c8bdd616b"><path d="M 118.976562 56.601562 L 284.726562 56.601562 L 284.726562 275.601562 L 118.976562 275.601562 Z M 118.976562 56.601562 " clip-rule="nonzero"/></clipPath><clipPath id="5e23943bf5"><path d="M 184 3 L 220.878906 3 L 220.878906 40 L 184 40 Z M 184 3 " clip-rule="nonzero"/></clipPath><clipPath id="0d5ebb60b2"><rect x="0" width="221" y="0" height="55"/></clipPath></defs><g clip-path="url(#4c8bdd616b)"><path fill="#ffffff" d="M 260.773438 80.964844 C 228.34375 48.535156 175.757812 48.535156 143.328125 80.964844 C 128.300781 95.992188 118.996094 116.757812 118.996094 139.703125 C 118.996094 177.6875 149.980469 207.945312 172.277344 237.035156 L 202.046875 275.855469 L 231.800781 237.035156 C 254.117188 207.945312 285.089844 177.691406 285.089844 139.707031 C 285.089844 116.765625 275.804688 95.996094 260.773438 80.964844 Z M 247.507812 93.875 C 222.40625 68.773438 181.699219 68.773438 156.59375 93.875 C 131.492188 118.980469 131.492188 159.6875 156.59375 184.789062 C 181.699219 209.894531 222.40625 209.894531 247.507812 184.789062 C 272.613281 159.6875 272.613281 118.980469 247.507812 93.875 Z M 202.050781 68.988281 C 240.894531 68.988281 272.394531 100.492188 272.394531 139.332031 C 272.394531 178.191406 240.894531 209.675781 202.050781 209.675781 C 163.195312 209.675781 131.707031 178.191406 131.707031 139.332031 C 131.703125 100.492188 163.195312 68.988281 202.050781 68.988281 Z M 230.730469 148.964844 L 171.324219 148.964844 L 171.324219 171.238281 C 171.324219 171.457031 171.496094 171.625 171.710938 171.625 L 230.335938 171.625 C 230.554688 171.625 230.734375 171.457031 230.734375 171.238281 L 230.734375 148.964844 Z M 171.324219 105.570312 L 230.734375 105.570312 L 230.734375 100.1875 C 230.734375 100.085938 230.691406 99.984375 230.621094 99.914062 L 230.621094 99.90625 C 230.546875 99.835938 230.449219 99.789062 230.332031 99.789062 L 171.707031 99.789062 C 171.480469 99.789062 171.320312 99.992188 171.320312 100.1875 L 171.320312 105.570312 Z M 204.054688 111.640625 L 204.054688 142.914062 L 230.734375 142.914062 L 230.734375 111.640625 Z M 198.003906 142.914062 L 198.003906 111.640625 L 171.324219 111.640625 L 171.324219 142.914062 Z M 218.941406 159.65625 C 218.941406 157.980469 220.300781 156.621094 221.976562 156.621094 C 223.652344 156.621094 225.011719 157.980469 225.011719 159.65625 L 225.011719 162.363281 C 225.011719 164.039062 223.652344 165.394531 221.976562 165.394531 C 220.300781 165.394531 218.941406 164.039062 218.941406 162.363281 Z M 191 164.59375 C 189.324219 164.59375 187.980469 163.234375 187.980469 161.558594 C 187.980469 159.882812 189.324219 158.539062 191 158.539062 L 211.039062 158.539062 C 212.714844 158.539062 214.074219 159.882812 214.074219 161.558594 C 214.074219 163.234375 212.714844 164.59375 211.039062 164.59375 Z M 177.050781 159.65625 C 177.050781 157.980469 178.40625 156.621094 180.082031 156.621094 C 181.746094 156.621094 183.101562 157.980469 183.101562 159.65625 L 183.101562 162.363281 C 183.101562 164.039062 181.746094 165.394531 180.082031 165.394531 C 178.40625 165.394531 177.050781 164.039062 177.050781 162.363281 Z M 215.648438 177.691406 L 215.648438 183.601562 L 224.222656 183.601562 L 224.222656 177.691406 Z M 177.835938 177.691406 L 177.835938 183.601562 L 186.410156 183.601562 L 186.410156 177.691406 Z M 165.253906 111.640625 L 160.027344 111.640625 L 160.027344 121.742188 C 160.027344 123.417969 158.6875 124.777344 157.007812 124.777344 C 155.332031 124.777344 153.976562 123.417969 153.976562 121.742188 L 153.976562 108.605469 C 153.976562 106.929688 155.332031 105.570312 157.007812 105.570312 L 165.253906 105.570312 L 165.253906 100.1875 C 165.253906 96.636719 168.171875 93.734375 171.707031 93.734375 L 230.332031 93.734375 C 232.105469 93.734375 233.722656 94.46875 234.894531 95.640625 L 234.894531 95.625 C 236.066406 96.796875 236.785156 98.414062 236.785156 100.1875 L 236.785156 105.570312 L 247.089844 105.570312 C 248.765625 105.570312 250.109375 106.929688 250.109375 108.605469 L 250.109375 121.742188 C 250.109375 123.417969 248.765625 124.777344 247.089844 124.777344 C 245.414062 124.777344 244.054688 123.417969 244.054688 121.742188 L 244.054688 111.640625 L 236.785156 111.640625 L 236.785156 171.234375 C 236.785156 174.796875 233.90625 177.6875 230.269531 177.6875 L 230.269531 186.632812 C 230.269531 188.308594 228.914062 189.667969 227.238281 189.667969 L 212.609375 189.667969 C 210.933594 189.667969 209.574219 188.308594 209.574219 186.632812 L 209.574219 177.6875 L 192.457031 177.6875 L 192.457031 186.632812 C 192.457031 188.308594 191.117188 189.667969 189.441406 189.667969 L 174.796875 189.667969 C 173.121094 189.667969 171.777344 188.308594 171.777344 186.632812 L 171.777344 177.6875 C 168.128906 177.6875 165.25 174.792969 165.25 171.234375 L 165.25 111.640625 Z M 165.253906 111.640625 " fill-opacity="1" fill-rule="nonzero"/></g><g transform="matrix(1, 0, 0, 1, 82, 274)"><g clip-path="url(#0d5ebb60b2)"><g fill="#ffffff" fill-opacity="1"><g transform="translate(0.4368, 39.265694)"><g><path d="M 34.890625 0 L 23.75 0 L 10.671875 -15.0625 L 10.671875 0 L 2.578125 0 L 2.578125 -35.484375 L 10.671875 -35.484375 L 10.671875 -20.984375 L 22.84375 -35.484375 L 32.65625 -35.484375 L 18.375 -18.671875 Z M 34.890625 0 "/></g></g></g><g fill="#ffffff" fill-opacity="1"><g transform="translate(34.28409, 39.265694)"><g><path d="M 0.984375 -17.765625 C 0.984375 -22.898438 2.734375 -27.242188 6.234375 -30.796875 C 9.734375 -34.359375 13.953125 -36.140625 18.890625 -36.140625 C 23.847656 -36.140625 28.0625 -34.367188 31.53125 -30.828125 C 35 -27.285156 36.734375 -22.929688 36.734375 -17.765625 C 36.734375 -12.578125 35.023438 -8.210938 31.609375 -4.671875 C 28.203125 -1.128906 23.960938 0.640625 18.890625 0.640625 C 13.691406 0.640625 9.40625 -1.113281 6.03125 -4.625 C 2.664062 -8.132812 0.984375 -12.515625 0.984375 -17.765625 Z M 9.71875 -17.765625 C 9.71875 -15.898438 10.003906 -14.195312 10.578125 -12.65625 C 11.148438 -11.125 12.15625 -9.828125 13.59375 -8.765625 C 15.03125 -7.710938 16.796875 -7.1875 18.890625 -7.1875 C 21.898438 -7.1875 24.171875 -8.21875 25.703125 -10.28125 C 27.234375 -12.34375 28 -14.835938 28 -17.765625 C 28 -20.660156 27.21875 -23.144531 25.65625 -25.21875 C 24.09375 -27.300781 21.835938 -28.34375 18.890625 -28.34375 C 15.960938 -28.34375 13.703125 -27.300781 12.109375 -25.21875 C 10.515625 -23.144531 9.71875 -20.660156 9.71875 -17.765625 Z M 9.71875 -17.765625 "/></g></g></g><g fill="#ffffff" fill-opacity="1"><g transform="translate(72.0021, 39.265694)"><g><path d="M 31.921875 0 L 30.234375 -21.03125 L 30.03125 -21.03125 L 22.75 -0.21875 L 17.9375 -0.21875 L 10.671875 -21.03125 L 10.453125 -21.03125 L 8.78125 0 L 0.6875 0 L 3.875 -35.484375 L 12.46875 -35.484375 L 20.34375 -15.015625 L 28.21875 -35.484375 L 36.828125 -35.484375 L 40 0 Z M 31.921875 0 "/></g></g></g><g fill="#ffffff" fill-opacity="1"><g transform="translate(112.687663, 39.265694)"><g><path d="M 10.671875 -35.484375 L 10.671875 0 L 2.578125 0 L 2.578125 -35.484375 Z M 10.671875 -35.484375 "/></g></g><g transform="translate(125.934126, 39.265694)"><g><path d="M 0.984375 -17.765625 C 0.984375 -22.898438 2.734375 -27.242188 6.234375 -30.796875 C 9.734375 -34.359375 13.953125 -36.140625 18.890625 -36.140625 C 23.847656 -36.140625 28.0625 -34.367188 31.53125 -30.828125 C 35 -27.285156 36.734375 -22.929688 36.734375 -17.765625 C 36.734375 -12.578125 35.023438 -8.210938 31.609375 -4.671875 C 28.203125 -1.128906 23.960938 0.640625 18.890625 0.640625 C 13.691406 0.640625 9.40625 -1.113281 6.03125 -4.625 C 2.664062 -8.132812 0.984375 -12.515625 0.984375 -17.765625 Z M 9.71875 -17.765625 C 9.71875 -15.898438 10.003906 -14.195312 10.578125 -12.65625 C 11.148438 -11.125 12.15625 -9.828125 13.59375 -8.765625 C 15.03125 -7.710938 16.796875 -7.1875 18.890625 -7.1875 C 21.898438 -7.1875 24.171875 -8.21875 25.703125 -10.28125 C 27.234375 -12.34375 28 -14.835938 28 -17.765625 C 28 -20.660156 27.21875 -23.144531 25.65625 -25.21875 C 24.09375 -27.300781 21.835938 -28.34375 18.890625 -28.34375 C 15.960938 -28.34375 13.703125 -27.300781 12.109375 -25.21875 C 10.515625 -23.144531 9.71875 -20.660156 9.71875 -17.765625 Z M 9.71875 -17.765625 "/></g></g></g><g fill="#ffffff" fill-opacity="1"><g transform="translate(162.275878, 39.265694)"><g><path d="M 0.34375 -28.390625 L 0.34375 -35.484375 L 25.296875 -35.484375 L 25.296875 -28.390625 L 16.859375 -28.390625 L 16.859375 0 L 8.78125 0 L 8.78125 -28.390625 Z M 0.34375 -28.390625 "/></g></g></g><g clip-path="url(#5e23943bf5)"><g fill="#ffffff" fill-opacity="1"><g transform="translate(185.844251, 39.265694)"><g><path d="M 20.609375 -35.484375 L 34.921875 0 L 26.234375 0 L 23.609375 -7.09375 L 10.109375 -7.09375 L 7.484375 0 L -1.203125 0 L 13.125 -35.484375 Z M 20.859375 -14.1875 L 16.90625 -24.515625 L 16.8125 -24.515625 L 12.859375 -14.1875 Z M 20.859375 -14.1875 "/></g></g></g></g></g></g></svg>